<svg id="Layer_35" enable-background="new 0 0 64 64" height="512" viewBox="0 0 64 64" width="512" xmlns="http://www.w3.org/2000/svg"><path d="m16 13h20c.551 0 1-.449 1-1v-4c0-.551-.449-1-1-1h-3v-1c0-1.654-1.346-3-3-3h-8c-1.654 0-3 1.346-3 3v1h-3c-.551 0-1 .449-1 1v4c0 .551.449 1 1 1zm10-8c1.654 0 3 1.346 3 3s-1.346 3-3 3-3-1.346-3-3 1.346-3 3-3z"/><circle cx="26" cy="8" r="1"/><path d="m19 29c-4.411 0-8 3.589-8 8h16c0-4.411-3.589-8-8-8z"/><circle cx="19" cy="23" r="4"/><path d="m47 15.426c.645-.183 1.312-.313 2-.376v-6.05h-10v2h8z"/><path d="m49 31h2v-4h4v-2h-4v-4h-2v4h-4v2h4z"/><path d="m41 26c0 4.962 4.038 9 9 9s9-4.038 9-9-4.038-9-9-9-9 4.038-9 9zm6-7h6v4h4v6h-4v4h-6v-4h-4v-6h4z"/><path d="m7 41h10v10h22.996l-.909-10h-2.087v-6h6.695c-2.834-1.992-4.695-5.28-4.695-9 0-4.264 2.444-7.961 6-9.786v-3.214h-6.184c-.414 1.161-1.514 2-2.816 2h-20c-1.302 0-2.402-.839-2.816-2h-6.184zm28 6h-16v-2h16zm-16-4v-2h2v2zm16 0h-12v-2h12zm-4-12v-2h2v2zm6 0h-2v-2h2zm-10-14h10v2h-10zm0 4h10v2h-10zm0 4h10v2h-10zm-18 12c0-4.208 2.616-7.81 6.304-9.283-1.4-1.1-2.304-2.803-2.304-4.717 0-3.309 2.691-6 6-6s6 2.691 6 6c0 1.914-.904 3.617-2.304 4.717 3.688 1.473 6.304 5.075 6.304 9.283v2h-20z"/><path d="m15.586 53-10.586-10.586v-31.414h8v-2h-10v46h37.359l-.181-2z"/><path d="m15 43h-6.586l6.586 6.586z"/><path d="m42.666 58.272c.141 1.555 1.425 2.728 2.987 2.728h8.694c1.562 0 2.846-1.173 2.987-2.728l.116-1.272h-2.45v-2h2.632l.182-2h-4.814v-2h4.996l.182-2h-3.178v-2h3.359l.182-2h-5.541v-2h5.723l.182-2h-17.81z"/><path d="m39 37h22v2h-22z"/></svg>