<?xml version="1.0" encoding="utf-8"?>
<!-- Svg Vector Icons : http://www.onlinewebfonts.com/icon -->
<!DOCTYPE svg PUBLIC "-//W3C//DTD SVG 1.1//EN" "http://www.w3.org/Graphics/SVG/1.1/DTD/svg11.dtd">
<svg version="1.1" xmlns="http://www.w3.org/2000/svg" xmlns:xlink="http://www.w3.org/1999/xlink" x="0px" y="0px" viewBox="0 0 1000 1000" enable-background="new 0 0 1000 1000" xml:space="preserve" fill="white">
<metadata> Svg Vector Icons : http://www.onlinewebfonts.com/icon </metadata>
<g><g transform="translate(0.000000,512.000000) scale(0.100000,-0.100000)"><path d="M4903.3,5085.7c-33.1-5.8-806.9-766-2414.8-2373.9C377.1,600.3,120.4,337.8,108.8,273.7c-27.2-161.4-5.8-200.3,280-486.1c223.6-221.6,278-268.3,340.2-280c180.8-31.1,73.9-128.3,2191.2,1985.1c1572.9,1569,1965.6,1952,2018.1,1963.7c149.7,31.1,70,105,2142.6-1963.7C9198.1-620.7,9091.2-523.5,9272-492.4c62.2,11.7,116.7,58.3,340.2,280c285.8,285.8,307.2,324.7,278,486.1c-11.7,64.2-268.3,326.6-2348.7,2412.8C5924,4306,5181.3,5037.1,5126.9,5062.4C5051,5097.3,5002.4,5103.2,4903.3,5085.7z"/><path d="M6884.5,4838.8c-112.8-77.8-134.2-145.8-134.2-433.6v-248.9l719.4-719.4c505.5-505.5,725.2-711.6,738.8-698c13.6,13.6,19.5,320.8,15.6,972.1c-5.8,919.6-7.8,952.7-46.7,1018.8c-21.4,36.9-68,87.5-105,110.8c-62.2,42.8-75.8,44.7-591.1,44.7C6954.5,4885.4,6954.5,4885.4,6884.5,4838.8z"/><path d="M4903.3,2781.8c-54.4-13.6-456.9-408.3-1940.4-1887.9L1092.6-976.5l3.9-1839.2l5.8-1839.3l52.5-68.1c103-134.1,103-134.1,1191.8-128.3l972.1,5.8l9.7,1967.6l9.7,1969.5l64.2,62.2l62.2,64.2l1512.6,5.8l1514.6,3.9l66.1-44.7c35-23.3,75.8-66.1,89.4-91.4c19.4-38.9,25.3-478.3,25.3-1996.7v-1950.1h987.7c985.7,0,987.7,0,1073.2,42.8c64.2,33.1,99.2,68,132.2,132.2l42.8,85.6v1810.1v1808.1L7038.1,893.9C4967.4,2962.6,5105.5,2838.1,4903.3,2781.8z"/><path d="M4574.7-1289.5c-33.1-40.8-40.8-81.7-42.8-194.4c-7.8-806.9,0-2966.9,9.7-2976.6c7.8-7.8,379.1-99.2,824.4-202.2l810.8-186.7l5.8,1722.6c2,946.8,0,1742-5.8,1767.3c-5.8,23.3-27.2,60.3-48.6,81.7c-36.9,37-68,38.9-775.8,38.9h-738.8L4574.7-1289.5z M4883.8-2461.9c9.7-21.4,19.4-124.4,19.4-229.4c0-206.1-21.4-268.3-89.4-254.7c-33,5.8-36.9,27.2-42.8,246.9c-3.9,180.8,1.9,245,19.4,258.6C4831.3-2415.2,4862.5-2423,4883.8-2461.9z"/></g></g>
</svg>