<?xml version="1.0" encoding="utf-8"?>
<!-- Svg Vector Icons : http://www.onlinewebfonts.com/icon -->
<!DOCTYPE svg PUBLIC "-//W3C//DTD SVG 1.1//EN" "http://www.w3.org/Graphics/SVG/1.1/DTD/svg11.dtd">
<svg version="1.1" xmlns="http://www.w3.org/2000/svg" xmlns:xlink="http://www.w3.org/1999/xlink" x="0px" y="0px" viewBox="0 0 1000 1000" enable-background="new 0 0 1000 1000" xml:space="preserve" fill="#095784dd">
<metadata> Svg Vector Icons : http://www.onlinewebfonts.com/icon </metadata>
<g><path d="M796.3,500c0,163.6-132.7,296.3-296.3,296.3c-163.6,0-296.3-132.6-296.3-296.3c0-19.5,1.9-38.5,5.6-57H10v393.8C10,921.4,78.5,990,163.2,990h673.7c84.6,0,153.2-68.5,153.2-153.2V443H790.8C794.3,461.5,796.3,480.5,796.3,500L796.3,500z M836.8,10H163.2C78.5,10,10,78.6,10,163.2v165.9h248.1c53.6-75.8,142-125.3,241.9-125.3c99.9,0,188.3,49.6,241.9,125.3H990V163.2C990,78.6,921.4,10,836.8,10z M911.8,199.2c0,15.1-12.3,27.4-27.3,27.4h-82c-15,0-27.4-12.3-27.4-27.4v-82c0-15.1,12.4-27.4,27.4-27.4h82c15.1,0,27.3,12.3,27.3,27.4V199.2z M682.3,500c0-100.7-81.7-182.3-182.3-182.3c-100.7,0-182.3,81.6-182.3,182.3c0,100.7,81.6,182.3,182.3,182.3C600.7,682.3,682.3,600.7,682.3,500z"/></g>
</svg>