<?xml version="1.0" encoding="utf-8"?>
<!-- Svg Vector Icons : http://www.onlinewebfonts.com/icon -->
<!DOCTYPE svg PUBLIC "-//W3C//DTD SVG 1.1//EN" "http://www.w3.org/Graphics/SVG/1.1/DTD/svg11.dtd">
<svg version="1.1" xmlns="http://www.w3.org/2000/svg" xmlns:xlink="http://www.w3.org/1999/xlink" x="0px" y="0px" viewBox="0 0 1000 1000" enable-background="new 0 0 1000 1000" xml:space="preserve" fill="white">
<metadata> Svg Vector Icons : http://www.onlinewebfonts.com/icon </metadata>
<g><g transform="translate(0.000000,511.000000) scale(0.100000,-0.100000)"><path d="M2153.8,4636.7L1554.7,4298v-671.8v-673.8l614.4-312l614.4-310.1l639.3,312l637.4,313.9l1.9,669.9V4296l-641.2,340.7c-354.1,185.7-648.9,338.8-656.5,336.9C2756.7,4973.6,2481.1,4820.5,2153.8,4636.7z"/><path d="M699.1,2265.2L100,1928.3v-668v-668l612.5-306.3c336.9-168.4,622.1-306.2,633.6-306.2c11.5,0,300.5,137.8,641.2,304.3l620.2,306.3l-3.8,675.7l-5.7,675.7L1975.8,2271c-342.6,181.8-635.5,329.2-650.8,329.2S1026.4,2449,699.1,2265.2z"/><path d="M3589.3,2265.2l-599.1-336.9v-668v-668l612.5-306.3c336.9-168.4,622.1-306.2,633.6-306.2c9.6,0,298.6,137.8,641.2,304.3l620.2,304.3v677.6l-1.9,675.7l-627.8,331.1c-346.4,179.9-641.2,329.2-654.6,329.2C4198,2600.2,3916.6,2449,3589.3,2265.2z"/><path d="M6537,2263.3l-599.1-336.9v-666.1v-668l612.5-306.3c336.9-168.4,624-306.2,635.5-306.2c13.4,0,302.4,135.9,641.2,300.5l616.3,302.4v679.5l1.9,679.5l-627.8,331.1c-346.5,179.9-641.2,329.2-656.5,327.3C7145.7,2600.2,6864.3,2449,6537,2263.3z"/><path d="M5111-92.9l-608.7-338.8v-675.7v-673.8l618.2-308.2l616.3-308.2l637.4,312l635.5,310.1v671.8v671.8l-633.5,335c-348.4,183.7-637.4,336.9-645,338.8C5723.5,245.9,5444.1,94.7,5111-92.9z"/><path d="M8001.2-92.9l-608.7-338.8v-675.7v-673.8l618.2-308.2l616.3-308.2l637.4,312l635.5,310.1v671.8v671.8l-633.5,335c-348.4,183.7-639.3,336.9-645,338.8C8613.7,245.9,8334.3,94.7,8001.2-92.9z"/><path d="M2148-104.4l-583.8-331.1l-5.7-677.6l-3.8-677.6l616.3-308.2l618.2-308.2l637.4,313.9l635.5,312l-3.8,671.8l-5.7,671.9l-629.7,333c-346.4,183.8-643.1,333-660.4,331.1C2745.2,224.8,2469.6,75.5,2148-104.4z"/><path d="M712.5-2447.2L109.6-2786l-3.8-669.9l-5.7-669.9l622.1-313.9l622.1-313.9l631.6,312l631.6,313.9v671.8v671.8l-639.3,338.8c-352.2,185.7-643.1,338.8-647,338.8C1319.3-2108.4,1043.6-2259.6,712.5-2447.2z"/><path d="M3598.9-2447.2L2992.1-2786v-669.9l-1.9-669.9l622.1-313.9l624-312l625.9,308.2l625.9,310.1l5.7,673.8l3.8,675.7l-639.3,338.8c-352.2,185.7-643.1,338.8-647,338.8C4209.5-2108.4,3932-2261.5,3598.9-2447.2z"/></g></g>
</svg>