<?xml version="1.0" encoding="utf-8"?>
<!-- Svg Vector Icons : http://www.onlinewebfonts.com/icon -->
<!DOCTYPE svg PUBLIC "-//W3C//DTD SVG 1.1//EN" "http://www.w3.org/Graphics/SVG/1.1/DTD/svg11.dtd">
<svg version="1.1" xmlns="http://www.w3.org/2000/svg" xmlns:xlink="http://www.w3.org/1999/xlink" x="0px" y="0px" viewBox="0 0 1000 1000" enable-background="new 0 0 1000 1000" xml:space="preserve">
<metadata> Svg Vector Icons : http://www.onlinewebfonts.com/icon </metadata>
<g><path d="M687.3,524.6c-26.5-6.5-45.4-14.3-56.2-23.7c-11.1-9.6-16.8-22.5-16.8-38.6c0-18.2,6.1-32.4,18-42.5c12.2-10.2,29-15.3,50.5-15.3c20.7,0,36.5,5,47.6,15c11,10.1,17.8,25.3,20.4,46h42c-1.5-29.4-12.1-52.5-31.7-69.4c-15.8-13.5-36-21.6-60.6-24.5v-47.8h-44.5v49.5c-20.2,3.3-37.7,10.9-52.6,23.3c-20.7,17.2-31,39.3-31,66.3c0,23.6,8,43.2,24.3,58.7c16.2,15.5,40.6,27.2,73.3,35.1c30.7,7.5,52.7,16.4,65.7,27c13,10.7,19.4,25,19.4,42.8c0,21.4-6.8,38.2-20.2,50.3c-13.7,12-32.5,18.1-56.6,18.1c-24.1,0-42.8-6.1-56.1-18.1c-13.2-12.1-20.1-29.1-20.4-51.3h-41.8l-0.5,8.4c0.2,23.7,10.9,44.7,32.2,63.4c18.8,16,40.1,25.7,64.4,29.5v42.2h44.5v-0.7h0.4l-0.4-27.5V727c25-3.2,46.1-12.3,63.1-27.1c22.5-19.4,33.5-44.1,33.5-74.3c0-25-9-45.7-26.9-62.5C751.9,546.4,724.3,533.5,687.3,524.6z"/><path d="M722.7,236.5V10.3V10h-490v0.4L10.4,232.7H10V990h0.2h712.5V854.6C873.8,832.5,990,702.7,990,545.5C990,388.3,873.8,258.5,722.7,236.5z M232.7,73.4v159.3H73.4L232.7,73.4z M678.2,945.4H54.8h-0.2V277.2h222.7V54.5h400.9v178.3c-0.3,0-0.6,0-0.9,0c-172.7,0-312.8,140-312.8,312.7c0,172.7,140,312.8,312.8,312.8c0.3,0,0.6,0,0.9,0V945.4z M678.2,813.7c-147.6,0-267.3-119.6-267.3-267.3c0-147.7,119.6-267.3,267.3-267.3c147.6,0,267.3,119.6,267.3,267.3C945.5,694,825.8,813.7,678.2,813.7z"/><path d="M99.1,411h222.7v44.5H99.1V411z"/><path d="M99.1,500h222.7v44.5H99.1V500z"/><path d="M99.1,678.2h222.7v44.5H99.1V678.2z"/><path d="M99.1,767.3h222.7v44.5H99.1V767.3z"/><path d="M321.8,143.7H500v44.5H321.8V143.7L321.8,143.7z"/><path d="M321.8,232.8H500v44.5H321.8V232.8L321.8,232.8z"/></g>
</svg>