<?xml version="1.0" encoding="utf-8"?>
<!-- Svg Vector Icons : http://www.onlinewebfonts.com/icon -->
<!DOCTYPE svg PUBLIC "-//W3C//DTD SVG 1.1//EN" "http://www.w3.org/Graphics/SVG/1.1/DTD/svg11.dtd">
<svg version="1.1" xmlns="http://www.w3.org/2000/svg" xmlns:xlink="http://www.w3.org/1999/xlink" x="0px" y="0px" viewBox="0 0 1000 1000" enable-background="new 0 0 1000 1000" xml:space="preserve" fill="#095784dd">
<metadata> Svg Vector Icons : http://www.onlinewebfonts.com/icon </metadata>
<g><g transform="translate(0.000000,511.000000) scale(0.100000,-0.100000)"><path d="M1558.1,4982.4c-648.8-64.9-1232.7-580.5-1410.2-1242.9c-37.6-140-47.8-819.5-47.8-3643.4c0-3786.8-10.2-3602.4,194.6-4008.7c112.7-218.6,457.6-563.4,676.1-676.1c406.3-204.9,218.5-194.6,4042.9-194.6h3503.4l232.2,81.9c546.3,194.6,894.6,553.2,1072.2,1106.3l78.5,249.3V41.4c0,2035.1-13.7,3469.2-34.2,3592.2c-51.2,324.4-235.6,659-495.1,901.5c-239,222-324.4,276.6-628.3,389.3c-191.2,75.1-215.1,75.1-3554.6,78.5C3337.1,5006.3,1705,4996,1558.1,4982.4z M5546.4,3210.2c563.4-116.1,1031.3-355.1,1444.4-737.6c542.9-502,846.8-1161,932.1-2014.6c37.6-348.3,34.1-399.5-17.1-478c-64.8-95.6-225.4-119.5-290.2-37.6c-20.5,27.3-54.6,215.1-71.7,416.6c-78.5,898-389.3,1516.1-990.2,1973.6c-420,324.4-795.6,471.2-1365.8,532.7c-375.6,44.4-478.1,88.8-478.1,215.1c0,37.6,23.9,99,58.1,133.2C4843,3295.5,5136.6,3295.5,5546.4,3210.2z M2944.4,3124.8c225.4-95.6,826.3-826.3,1034.6-1266.8c187.8-382.4,153.7-505.4-208.3-799c-126.3-102.4-242.4-222-259.5-266.3c-119.5-314.1,136.6-891.2,614.6-1386.3c420-437.1,990.2-775.1,1314.6-775.1c153.7,0,177.6,10.2,290.2,143.4c368.8,423.4,351.7,413.2,580.5,430.2c204.9,13.7,215.1,10.2,525.9-174.1c474.6-283.4,1051.7-764.9,1113.2-925.4c88.8-235.6-27.3-505.4-402.9-915.1c-201.4-218.5-450.7-365.4-679.5-392.7c-198.1-23.9-416.6,58.1-1099.6,402.9C4289.8-2051.7,3077.6-883.9,2244.5,594.6C1950.8,1117,1681,1782.9,1646.9,2079.9c-13.7,119.5,0,191.2,51.2,297.1c143.4,280,819.5,795.6,1041.5,795.6C2790.8,3172.6,2883,3152.1,2944.4,3124.8z M5631.7,2448.7c85.4-20.5,283.4-95.6,443.9-174.1c659.1-310.7,1092.7-1000.5,1092.7-1738c0-273.2-30.7-334.6-167.3-334.6s-208.3,92.2-208.3,273.2c0,867.3-587.3,1509.3-1492.2,1639c-259.5,34.2-372.2,122.9-331.2,252.7C5017.1,2534.1,5181,2554.6,5631.7,2448.7z M5604.5,1700.9c484.8-102.4,771.7-440.5,805.8-942.4c13.7-239,13.7-249.3-75.1-286.8c-136.6-64.9-249.3,3.4-276.6,163.9c-85.4,498.5-218.5,641.9-659,710.2c-211.7,34.1-290.2,232.2-136.6,338C5355.2,1748.7,5372.2,1748.7,5604.5,1700.9z"/></g></g>
</svg>